<svg t="1650615469677" class="icon" viewBox="0 0 1024 1024" version="1.1" xmlns="http://www.w3.org/2000/svg" p-id="4497" width="200" height="200"><path d="M79.169331 113.350554l121.006899 0 0 120.557773-121.006899 0 0-120.557773ZM324.965581 113.350554l647.967334 0 0 120.557773-647.967334 0 0-120.557773ZM79.169331 444.549837l121.006899 0 0 120.557773-121.006899 0 0-120.557773ZM324.965581 444.549837l647.967334 0 0 120.557773-647.967334 0 0-120.557773ZM79.169331 754.840781l121.006899 0 0 120.334643-121.006899 0 0-120.334643ZM324.965581 754.840781l647.967334 0 0 120.334643-647.967334 0 0-120.334643Z" p-id="4498"></path></svg>